<svg id="calculator" xmlns="http://www.w3.org/2000/svg" width="28" height="28" viewBox="0 0 28 28">
  <path id="Path_146" data-name="Path 146" d="M0,13.517H13.517V0H0ZM3.862,5.793H5.793V3.862a.966.966,0,1,1,1.931,0V5.793H9.655a.966.966,0,0,1,0,1.931H7.724V9.655a.966.966,0,0,1-1.931,0V7.724H3.862a.966.966,0,1,1,0-1.931Z" fill="#a4a4a4"/>
  <path id="Path_147" data-name="Path 147" d="M30,0V13.517H43.517V0Zm9.655,7.724H33.862a.966.966,0,0,1,0-1.931h5.793a.966.966,0,1,1,0,1.931Z" transform="translate(-15.517)" fill="#a4a4a4"/>
  <path id="Path_148" data-name="Path 148" d="M30,43.517H43.517V30H30Zm3.862-9.172h5.793a.966.966,0,0,1,0,1.931H33.862a.966.966,0,0,1,0-1.931Zm0,2.9h5.793a.966.966,0,1,1,0,1.931H33.862a.966.966,0,0,1,0-1.931Z" transform="translate(-15.517 -15.517)" fill="#a4a4a4"/>
  <path id="Path_149" data-name="Path 149" d="M0,43.517H13.517V30H0Zm3.662-8.49a.965.965,0,1,1,1.365-1.365l1.731,1.731L8.49,33.662a.965.965,0,1,1,1.365,1.365L8.124,36.759,9.855,38.49A.965.965,0,1,1,8.49,39.855L6.759,38.124,5.027,39.855A.965.965,0,0,1,3.662,38.49l1.731-1.731Z" transform="translate(0 -15.517)" fill="#a4a4a4"/>
</svg>
