<svg xmlns="http://www.w3.org/2000/svg" width="28" height="28" viewBox="0 0 28 28">
  <g id="error" transform="translate(0 0)">
    <path id="Path_144" data-name="Path 144" d="M23.9,4.1a14.006,14.006,0,1,0,0,19.808A14.022,14.022,0,0,0,23.9,4.1ZM19.523,19.523a1.077,1.077,0,0,1-1.523,0l-4-4-4.19,4.19A1.077,1.077,0,0,1,8.286,18.19L12.476,14l-4-4A1.077,1.077,0,0,1,10,8.476l4,4,3.809-3.809a1.077,1.077,0,0,1,1.523,1.523L15.523,14l4,4A1.077,1.077,0,0,1,19.523,19.523Z" transform="translate(0 0)" fill="red"/>
  </g>
</svg>
