<svg xmlns="http://www.w3.org/2000/svg" width="59.299" height="50.557" viewBox="0 0 59.299 50.557">
  <g id="living-room-books-group" transform="translate(0 -7.18)">
    <path id="Path_114" data-name="Path 114" d="M0,7.419H10.656v5.328H0Zm0,7.459H10.656V51.108H0ZM1.953,44.4a3.33,3.33,0,1,0,3.33-3.331A3.33,3.33,0,0,0,1.953,44.4ZM0,57.5H10.656V53.239H0Zm12.787-5.007V57.5H26.639V52.467c-.566-.4-2.323-1.359-6.393-1.359A17.971,17.971,0,0,0,12.787,52.493Zm0-30.653a18,18,0,0,0,7.459,1.386c4.045,0,5.806-.944,6.393-1.367V18.075H12.787Zm0,2.307V50.186a21.265,21.265,0,0,1,7.459-1.209,15.936,15.936,0,0,1,6.393,1.076V24.282a15.973,15.973,0,0,1-6.393,1.075A21.288,21.288,0,0,1,12.787,24.147ZM49.234,7.18l-7.307,1.5L43,13.9l7.307-1.5Zm8.78,42.8-7.305,1.5L43.426,15.986l7.307-1.5Zm-2.535-6.326c-.37-1.8-1.81-3.027-3.212-2.739S50.022,42.9,50.394,44.7s1.808,3.028,3.211,2.739S55.85,45.455,55.479,43.652Zm2.964,8.411-7.308,1.5.857,4.173,7.307-1.5ZM29.835,12.747H40.491V7.419H29.835Zm0,44.754H40.491V53.239H29.835Zm0-11.721H40.491V20.206H29.835Zm0,5.328H40.491v-3.2H29.835Zm0-33.033H40.491v-3.2H29.835Z" transform="translate(0 0)" fill="#6fda44"/>
  </g>
</svg>
