<svg xmlns="http://www.w3.org/2000/svg" width="50.9" height="50.9" viewBox="0 0 50.9 50.9">
  <g id="statistics" transform="translate(0 0)">
    <path id="Path_115" data-name="Path 115" d="M35.474,23.859a4.451,4.451,0,0,0,3.1-1.258l4.414,2.207a4.382,4.382,0,0,0-.055.542,4.474,4.474,0,1,0,8.947,0,4.419,4.419,0,0,0-.449-1.916l5.988-5.988a4.419,4.419,0,0,0,1.916.449,4.479,4.479,0,0,0,4.474-4.474,4.407,4.407,0,0,0-.223-1.325l5.2-3.9a4.471,4.471,0,1,0-2-3.721A4.407,4.407,0,0,0,67.012,5.8l-5.2,3.9a4.454,4.454,0,0,0-6.5,5.637L49.32,21.326a4.4,4.4,0,0,0-5.013.809l-4.414-2.207a4.38,4.38,0,0,0,.055-.542,4.474,4.474,0,1,0-4.474,4.474Zm0,0" transform="translate(-27.918 0)" fill="#6fda44"/>
    <path id="Path_116" data-name="Path 116" d="M49.409,183.005H47.818V151.491A1.491,1.491,0,0,0,46.327,150H40.362a1.491,1.491,0,0,0-1.491,1.491v31.514H35.888V160.438a1.491,1.491,0,0,0-1.491-1.491H28.432a1.491,1.491,0,0,0-1.491,1.491v22.567H23.959V172.368a1.491,1.491,0,0,0-1.491-1.491H16.5a1.491,1.491,0,0,0-1.491,1.491v10.637H12.029V166.4a1.491,1.491,0,0,0-1.491-1.491H4.573A1.491,1.491,0,0,0,3.082,166.4v16.6H1.491a1.491,1.491,0,1,0,0,2.982H49.409a1.491,1.491,0,1,0,0-2.982Zm0,0" transform="translate(0 -135.088)" fill="#6fda44"/>
  </g>
</svg>
