<svg id="exam_1_" data-name="exam (1)" xmlns="http://www.w3.org/2000/svg" width="44.478" height="50.606" viewBox="0 0 44.478 50.606">
  <path id="Path_112" data-name="Path 112" d="M25.2,73.861a1.468,1.468,0,0,1-1.483-1.483V62H1.483A1.468,1.468,0,0,0,0,63.483V105a1.468,1.468,0,0,0,1.483,1.483H34.1A1.468,1.468,0,0,0,35.583,105V73.861ZM17.346,94.173l-5.93,5.93a1.433,1.433,0,0,1-2.076,0L6.375,97.138a1.468,1.468,0,0,1,2.076-2.076l1.927,1.9L15.271,92.1a1.468,1.468,0,1,1,2.076,2.076Zm0-11.861-5.93,5.93a1.433,1.433,0,0,1-2.076,0L6.375,85.277A1.468,1.468,0,1,1,8.451,83.2l1.927,1.9,4.893-4.863a1.468,1.468,0,1,1,2.076,2.076Zm0-11.861-5.93,5.93a1.433,1.433,0,0,1-2.076,0L6.375,73.416A1.468,1.468,0,0,1,8.451,71.34l1.927,1.9,4.893-4.863a1.468,1.468,0,1,1,2.076,2.076ZM28.169,97.583h-5.93a1.483,1.483,0,0,1,0-2.965h5.93a1.483,1.483,0,0,1,0,2.965Zm0-11.861h-5.93a1.483,1.483,0,0,1,0-2.965h5.93a1.483,1.483,0,0,1,0,2.965ZM26.687,62.89V70.9h8.006Zm0,0" transform="translate(0 -55.872)" fill="#6fda44"/>
  <path id="Path_113" data-name="Path 113" d="M125.583,1.483V43.193a1.468,1.468,0,0,1-1.483,1.483h-4.448V16.506a4.392,4.392,0,0,0-1.3-3.143l-8.9-8.9a4.444,4.444,0,0,0-3.143-1.3H90V1.483A1.468,1.468,0,0,1,91.483,0H124.1a1.468,1.468,0,0,1,1.483,1.483Zm0,0" transform="translate(-81.104)" fill="#6fda44"/>
</svg>
