<svg id="exam_3_" data-name="exam (3)" xmlns="http://www.w3.org/2000/svg" width="20.332" height="27.935" viewBox="0 0 20.332 27.935">
  <path id="Path_141" data-name="Path 141" d="M133.786,210.113l-.528,1.15h1.055Zm0,0" transform="translate(-125.988 -198.649)" fill="#6fda44"/>
  <path id="Path_142" data-name="Path 142" d="M13.539,13.535v-4.7l-4.7,4.7Zm0,0" transform="translate(-8.354 -8.35)" fill="#6fda44"/>
  <path id="Path_143" data-name="Path 143" d="M19.509,0H6.83V6.007a.823.823,0,0,1-.823.823H0V27.112a.823.823,0,0,0,.823.823H19.509a.823.823,0,0,0,.823-.823V.823A.823.823,0,0,0,19.509,0ZM12.57,11.746a.823.823,0,0,1,0-1.645h.58V9.52a.823.823,0,0,1,1.645,0v.58h.58a.823.823,0,0,1,0,1.645H14.8v.581a.823.823,0,0,1-1.645,0v-.581Zm-8.363,3.6,2.843-6.2h0a.822.822,0,0,1,1.495,0l2.843,6.2a.823.823,0,1,1-1.5.686L9.081,14.26H6.516L5.7,16.031a.823.823,0,1,1-1.5-.686Zm.748,2.8H15.376a.823.823,0,1,1,0,1.645H4.955a.823.823,0,1,1,0-1.645Zm0,2.511h6.872a.823.823,0,1,1,0,1.645H4.955a.823.823,0,1,1,0-1.645Zm0,0" fill="#6fda44"/>
</svg>
