<svg id="lock" xmlns="http://www.w3.org/2000/svg" width="76.899" height="85.443" viewBox="0 0 76.899 85.443">
  <path id="Path_90" data-name="Path 90" d="M43.209,16.544a8.544,8.544,0,1,0-17.089,0v1.424a1.424,1.424,0,1,0,2.848,0V16.544a5.7,5.7,0,0,1,11.392,0v9.968H19V53.57H50.329V26.513h-7.12Zm4.272,34.177H21.848V29.361H47.481Z" transform="translate(3.785 3.392)"/>
  <path id="Path_91" data-name="Path 91" d="M31.7,25a5.684,5.684,0,0,0-1.424,11.19v3.05a1.424,1.424,0,1,0,2.848,0V36.19A5.684,5.684,0,0,0,31.7,25Zm0,8.544A2.848,2.848,0,1,1,34.544,30.7,2.851,2.851,0,0,1,31.7,33.544Z" transform="translate(6.753 10.601)" fill="#86bc24"/>
  <path id="Path_92" data-name="Path 92" d="M41.449,0a38.445,38.445,0,0,0-3.288,76.749L31.9,83.012a1.424,1.424,0,1,0,2.014,2.014l8.543-8.543a1.41,1.41,0,0,0,.309-.464,1.428,1.428,0,0,0-.309-1.552l-8.543-8.543A1.424,1.424,0,0,0,31.9,67.937l5.93,5.93A35.6,35.6,0,1,1,66.743,63.5a1.424,1.424,0,1,0,2.024,2.005A38.45,38.45,0,0,0,41.449,0Z" transform="translate(-3)"/>
</svg>
