<svg id="support" xmlns="http://www.w3.org/2000/svg" width="76.909" height="85.603" viewBox="0 0 76.909 85.603">
  <g id="Group_68" data-name="Group 68" transform="translate(55.174 66.208)">
    <g id="Group_67" data-name="Group 67">
      <path id="Path_80" data-name="Path 80" d="M357.672,396a1.672,1.672,0,1,0,1.672,1.672A1.673,1.673,0,0,0,357.672,396Z" transform="translate(-356 -396)" fill="#6fda44"/>
    </g>
  </g>
  <g id="Group_70" data-name="Group 70" transform="translate(0)">
    <g id="Group_69" data-name="Group 69">
      <path id="Path_81" data-name="Path 81" d="M86.962,60.8l-7.947-2.648-2.853-5.706a18.312,18.312,0,0,0,4.956-9.687l.356-2.133h3.043a5.021,5.021,0,0,0,5.016-5.016V25.079a25.079,25.079,0,0,0-50.158,0V35.612a5.024,5.024,0,0,0,3.344,4.728V42.3a5.021,5.021,0,0,0,5.016,5.016H49.2a18.138,18.138,0,0,0,2.8,4.343c.237.272.484.536.737.793l-2.851,5.7L41.946,60.8C32.706,63.883,26,73.61,26,83.931A1.672,1.672,0,0,0,27.672,85.6h73.565a1.672,1.672,0,0,0,1.672-1.672C102.909,73.61,96.2,63.883,86.962,60.8Zm-.773-25.19a1.674,1.674,0,0,1-1.672,1.672H81.966c.425-3.292.708-6.8.822-10.246,0-.1.006-.192.009-.288h3.393Zm-41.8,1.672a1.674,1.674,0,0,1-1.672-1.672V26.751h3.394q.008.262.018.526c0,.006,0,.012,0,.018v0c.117,3.356.4,6.768.812,9.988H44.391Zm3.344,6.688A1.674,1.674,0,0,1,46.063,42.3V40.628h1.371l.356,2.133c.068.405.151.809.248,1.211ZM46.066,23.407H42.783a21.736,21.736,0,0,1,43.343,0H82.843A16.934,16.934,0,0,0,65.951,6.688H62.958A16.934,16.934,0,0,0,46.066,23.407ZM62.958,10.032h2.993A13.6,13.6,0,0,1,79.5,23.643c0,.526,0,.984-.013,1.4,0,.005,0,.011,0,.016l-2.091-.3a26.866,26.866,0,0,1-15.1-7.552,1.672,1.672,0,0,0-1.182-.49,15.126,15.126,0,0,0-11.63,5.5A13.591,13.591,0,0,1,62.958,10.032ZM51.5,43.972C50.667,41.187,49.709,33,49.5,27.745l2.25-3a11.768,11.768,0,0,1,8.7-4.663,30.241,30.241,0,0,0,16.475,7.989l2.461.352c-.165,3.492-.5,7-.982,10.218v0c-.153,1.036-.274,1.7-.582,3.565-.885,5.311-4.848,10.113-10.08,11.421a13.155,13.155,0,0,1-14.767-6.316h3.408a5.024,5.024,0,0,0,4.728,3.344h3.344a5.016,5.016,0,0,0,0-10.032H61.11a5.018,5.018,0,0,0-4.731,3.344ZM60.97,57.015a16.77,16.77,0,0,0,6.219.14L64.234,60.28Zm.966,5.7-5.3,5.608a63.7,63.7,0,0,1-3.743-8.68l1.991-3.983Zm11.809-7.621,2.274,4.549a63.685,63.685,0,0,1-3.744,8.683L66.6,62.645ZM59.439,45.644a1.672,1.672,0,0,1,1.672-1.672h3.344a1.672,1.672,0,0,1,0,3.344H61.11A1.674,1.674,0,0,1,59.439,45.644ZM29.411,82.259C30.073,73.976,35.585,66.448,43,63.974l7.038-2.345A67.023,67.023,0,0,0,54.8,71.951l.009.017h0a67.038,67.038,0,0,0,4.576,6.988l2.057,3.3Zm35.044-1.49-2.267-3.64q-.038-.061-.081-.119a63.747,63.747,0,0,1-3.767-5.628L64.3,65.076l6.283,6.283a63.676,63.676,0,0,1-3.78,5.65C66.721,77.118,66.838,76.946,64.454,80.769Zm3.011,1.49,2.057-3.3a67.012,67.012,0,0,0,4.608-7.044l.025-.044,0-.005a66.969,66.969,0,0,0,4.709-10.234L85.9,63.974c7.419,2.474,12.931,10,13.593,18.285H67.465Z" transform="translate(-26)"/>
    </g>
  </g>
  <g id="Group_72" data-name="Group 72" transform="translate(61.049 69.4)">
    <g id="Group_71" data-name="Group 71">
      <path id="Path_82" data-name="Path 82" d="M398.564,421.181a16.716,16.716,0,0,0-4.733-5.746,1.672,1.672,0,1,0-2.039,2.65,13.352,13.352,0,0,1,3.78,4.59,1.672,1.672,0,0,0,2.992-1.494Z" transform="translate(-391.139 -415.089)" fill="#6fda44"/>
    </g>
  </g>
</svg>
