<svg id="team" xmlns="http://www.w3.org/2000/svg" width="116.389" height="85.443" viewBox="0 0 116.389 85.443">
  <g id="Group_74" data-name="Group 74" transform="translate(89.281 36.459)">
    <g id="Group_73" data-name="Group 73" transform="translate(0 0)">
      <path id="Path_83" data-name="Path 83" d="M406.156,230.452c-3.96-1.98-11.386-2-11.7-2a1.7,1.7,0,0,0,0,3.41c1.916,0,7.479.3,10.175,1.643a1.7,1.7,0,0,0,1.525-3.05Z" transform="translate(-392.751 -228.449)" fill="#6fda44"/>
    </g>
  </g>
  <g id="Group_76" data-name="Group 76" transform="translate(0 0)">
    <g id="Group_75" data-name="Group 75">
      <path id="Path_84" data-name="Path 84" d="M111.186,130.8l-7.041-2.012a.715.715,0,0,1-.516-.684v-2.35a12.815,12.815,0,0,0,1.63-1.337,12.542,12.542,0,0,0,3.839-9.074V112.1l.681-1.361a10.877,10.877,0,0,0,1.142-4.839V97.115a1.7,1.7,0,0,0-1.7-1.7H92.809a10.832,10.832,0,0,0-10.82,10.82v.1a9.043,9.043,0,0,0,.95,4.023l.873,1.746v2.785a13.3,13.3,0,0,0,5.469,10.756V128.1c0,.38,0,.537-1.408.94l-3.436.982L74.5,126.412a1.7,1.7,0,0,0-.465-1.305l-3.176-3.337v-5.6c.336-.277.667-.561.987-.861a20.01,20.01,0,0,0,6.3-14.547V96.287A19.708,19.708,0,0,0,79.973,88V69.771a1.7,1.7,0,0,0-1.7-1.7H52.747A16.307,16.307,0,0,0,36.459,84.354V88a19.707,19.707,0,0,0,1.823,8.287v3.849a20.833,20.833,0,0,0,7.292,15.9v5.733L42.4,125.107a1.7,1.7,0,0,0-.465,1.305l-10.49,3.814a8.941,8.941,0,0,0-2.108,1.1l-1.647-.824c4.9-2.134,6.457-5.136,6.531-5.285a1.7,1.7,0,0,0,0-1.525c-1.229-2.458-1.378-6.964-1.5-10.584-.04-1.205-.078-2.344-.15-3.358-.581-8.178-6.8-14.345-14.461-14.345S4.231,101.577,3.65,109.755c-.072,1.014-.11,2.153-.15,3.358-.12,3.62-.269,8.125-1.5,10.584a1.7,1.7,0,0,0,0,1.525c.075.149,1.625,3.145,6.538,5.282l-4.575,2.288A7.137,7.137,0,0,0,0,139.207v12.6a1.7,1.7,0,1,0,3.41,0v-12.6a3.744,3.744,0,0,1,2.08-3.367l5.7-2.849,1.982,1.883a7.17,7.17,0,0,0,9.884,0l1.982-1.883,1.858.929a8.978,8.978,0,0,0-1.371,4.76V151.8a1.7,1.7,0,0,0,3.41,0V138.681a5.6,5.6,0,0,1,3.678-5.25l11.06-4.022,4.6,6.906a3.515,3.515,0,0,0,2.588,1.554q.177.017.352.017a3.514,3.514,0,0,0,2.491-1.033l2.809-2.809V151.8a1.7,1.7,0,1,0,3.41,0V134.044l2.809,2.809a3.513,3.513,0,0,0,2.491,1.034q.175,0,.351-.017a3.515,3.515,0,0,0,2.588-1.554l4.6-6.906,11.059,4.022a5.6,5.6,0,0,1,3.678,5.25V151.8a1.7,1.7,0,1,0,3.41,0V138.682a9.013,9.013,0,0,0-2.522-6.238l.421-.12a9.353,9.353,0,0,0,1.586-.573L94.75,136.1v15.7a1.7,1.7,0,1,0,3.41,0V136.1l4.323-4.323a4.055,4.055,0,0,0,.725.288l7.042,2.012a3.78,3.78,0,0,1,2.73,3.619v14.1a1.7,1.7,0,1,0,3.41,0V137.7A7.205,7.205,0,0,0,111.186,130.8ZM10.938,127.79a12.257,12.257,0,0,1-5.472-3.513,18.793,18.793,0,0,0,.972-4.082,12.713,12.713,0,0,0,4.5,5.552ZM20.7,132.4a3.762,3.762,0,0,1-5.186,0L13.933,130.9a3.528,3.528,0,0,0,.415-1.665v-1.817a12.678,12.678,0,0,0,7.528,0v1.816a3.528,3.528,0,0,0,.415,1.666Zm-2.592-7.827a9.243,9.243,0,0,1-9.233-9.233,1.695,1.695,0,0,0-1.985-1.68c0-.147.01-.293.015-.439.038-1.172.075-2.28.142-3.229a12.658,12.658,0,0,1,3.447-7.949,10.593,10.593,0,0,1,15.227,0A12.658,12.658,0,0,1,29.172,110c.067.95.1,2.057.143,3.229l.01.3a15.32,15.32,0,0,0-8.421-6.153,21.4,21.4,0,0,0-6.485-1.027,1.705,1.705,0,0,0-1.18.521l-3.076,3.19a1.7,1.7,0,0,0,2.455,2.367l2.56-2.654c2.2.108,9.3.932,12.054,7.006A9.21,9.21,0,0,1,18.112,124.577Zm7.173,3.218v-2.033a12.611,12.611,0,0,0,4.5-5.558,18.769,18.769,0,0,0,.971,4.073A12.315,12.315,0,0,1,25.285,127.8Zm16.407-27.659v-4.23a1.705,1.705,0,0,0-.17-.741A16.354,16.354,0,0,1,39.869,88V84.355A12.893,12.893,0,0,1,52.747,71.476H76.564V88a16.354,16.354,0,0,1-1.653,7.165,1.705,1.705,0,0,0-.17.741v4.854a16.368,16.368,0,0,1-5.226,12.059,16.968,16.968,0,0,1-1.309,1.108l-.029.021a16.393,16.393,0,0,1-11.063,3.3C48.465,116.69,41.692,109.173,41.692,100.136Zm9.6,34.305a.107.107,0,0,1-.1.034.108.108,0,0,1-.087-.052l-5.3-7.954,1.706-1.793,8.044,5.5Zm6.925-6.579-9.233-6.311v-3.183a19.2,19.2,0,0,0,7.909,2.283q.674.044,1.341.043a19.748,19.748,0,0,0,9.215-2.258v3.114Zm7.107,6.562a.108.108,0,0,1-.087.052.105.105,0,0,1-.1-.034l-4.266-4.266,8.044-5.5,1.707,1.793Zm31.132-1.438-3.869-3.869a4.678,4.678,0,0,0,.105-1.013v-.719a11.955,11.955,0,0,0,3.376.6c.131,0,.262.006.393.006a12.664,12.664,0,0,0,3.759-.569v.687a4.076,4.076,0,0,0,.123.994Zm6.429-11.015a9.163,9.163,0,0,1-6.714,2.6,9.544,9.544,0,0,1-8.948-9.687V111.7a1.7,1.7,0,0,0-.18-.762l-1.053-2.106a5.616,5.616,0,0,1-.59-2.5v-.1a7.418,7.418,0,0,1,7.41-7.41h14.7V105.9a7.449,7.449,0,0,1-.782,3.314l-.861,1.721a1.7,1.7,0,0,0-.18.762v3.646A9.16,9.16,0,0,1,102.884,121.971Z" transform="translate(0 -68.066)"/>
    </g>
  </g>
  <g id="Group_78" data-name="Group 78" transform="translate(105.687 71.095)">
    <g id="Group_77" data-name="Group 77">
      <path id="Path_85" data-name="Path 85" d="M466.628,380.814a1.7,1.7,0,0,0-1.7,1.7v10.938a1.7,1.7,0,0,0,3.41,0V382.519A1.705,1.705,0,0,0,466.628,380.814Z" transform="translate(-464.923 -380.814)"/>
    </g>
  </g>
  <g id="Group_80" data-name="Group 80" transform="translate(7.292 73.348)">
    <g id="Group_79" data-name="Group 79" transform="translate(0 0)">
      <path id="Path_86" data-name="Path 86" d="M33.782,390.728a1.7,1.7,0,0,0-1.7,1.7v8.684a1.7,1.7,0,0,0,3.41,0v-8.684A1.705,1.705,0,0,0,33.782,390.728Z" transform="translate(-32.077 -390.728)"/>
    </g>
  </g>
  <g id="Group_82" data-name="Group 82" transform="translate(43.75 15.489)">
    <g id="Group_81" data-name="Group 81">
      <path id="Path_87" data-name="Path 87" d="M220.892,141.266c-6.448-6.448-19.94-5.215-25.441-4.386a3.5,3.5,0,0,0-2.99,3.487v3.928a1.7,1.7,0,1,0,3.41,0v-3.928a.113.113,0,0,1,.089-.115,53.864,53.864,0,0,1,11.076-.541c5.317.354,9.167,1.689,11.445,3.967a1.7,1.7,0,0,0,2.411-2.411Z" transform="translate(-192.46 -136.203)" fill="#6fda44"/>
    </g>
  </g>
  <g id="Group_84" data-name="Group 84" transform="translate(36.459 74.741)">
    <g id="Group_83" data-name="Group 83" transform="translate(0 0)">
      <path id="Path_88" data-name="Path 88" d="M162.089,396.853a1.7,1.7,0,0,0-1.7,1.7v7.292a1.7,1.7,0,0,0,3.41,0v-7.292A1.705,1.705,0,0,0,162.089,396.853Z" transform="translate(-160.384 -396.853)" fill="#6fda44"/>
    </g>
  </g>
  <g id="Group_86" data-name="Group 86" transform="translate(76.563 74.741)">
    <g id="Group_85" data-name="Group 85" transform="translate(0 0)">
      <path id="Path_89" data-name="Path 89" d="M338.511,396.853a1.7,1.7,0,0,0-1.7,1.7v7.292a1.7,1.7,0,0,0,3.41,0v-7.292A1.705,1.705,0,0,0,338.511,396.853Z" transform="translate(-336.806 -396.853)" fill="#6fda44"/>
    </g>
  </g>
</svg>
