<?xml version="1.0" encoding="UTF-8"?>
<!DOCTYPE svg PUBLIC "-//W3C//DTD SVG 1.1//EN" "http://www.w3.org/Graphics/SVG/1.1/DTD/svg11.dtd">
<!-- Creator: CorelDRAW 2018 (64-Bit) -->
<svg xmlns="http://www.w3.org/2000/svg" xml:space="preserve" width="143.338mm" height="59.117mm" version="1.1" style="shape-rendering:geometricPrecision; text-rendering:geometricPrecision; image-rendering:optimizeQuality; fill-rule:evenodd; clip-rule:evenodd"
viewBox="0 0 14333.8 5911.7"
 xmlns:xlink="http://www.w3.org/1999/xlink">
 <defs>
  <style type="text/css">
   <![CDATA[
    .fil52 {fill:#6FDA44}
    .fil51 {fill:#70DA44}
    .fil50 {fill:#71DA44}
    .fil49 {fill:#72DB45}
    .fil48 {fill:#73DB45}
    .fil47 {fill:#74DB45}
    .fil46 {fill:#75DB45}
    .fil45 {fill:#76DB45}
    .fil44 {fill:#77DB45}
    .fil43 {fill:#78DC46}
    .fil42 {fill:#79DC46}
    .fil41 {fill:#7ADC46}
    .fil40 {fill:#7BDC46}
    .fil39 {fill:#7CDC46}
    .fil38 {fill:#7DDC46}
    .fil37 {fill:#7EDD47}
    .fil36 {fill:#7FDD47}
    .fil35 {fill:#80DD47}
    .fil34 {fill:#81DD47}
    .fil33 {fill:#82DD47}
    .fil32 {fill:#83DD47}
    .fil31 {fill:#83DE48}
    .fil30 {fill:#84DE48}
    .fil29 {fill:#85DE48}
    .fil28 {fill:#86DE48}
    .fil27 {fill:#87DE48}
    .fil26 {fill:#88DE48}
    .fil25 {fill:#89DF49}
    .fil24 {fill:#8ADF49}
    .fil23 {fill:#8BDF49}
    .fil22 {fill:#8CDF49}
    .fil21 {fill:#8DDF49}
    .fil20 {fill:#8EDF49}
    .fil19 {fill:#8FE04A}
    .fil18 {fill:#90E04A}
    .fil17 {fill:#91E04A}
    .fil16 {fill:#92E04A}
    .fil15 {fill:#93E04A}
    .fil14 {fill:#94E14B}
    .fil13 {fill:#95E14B}
    .fil12 {fill:#96E14B}
    .fil11 {fill:#97E14B}
    .fil10 {fill:#98E14B}
    .fil9 {fill:#99E14B}
    .fil8 {fill:#9AE24C}
    .fil7 {fill:#9BE24C}
    .fil6 {fill:#9CE24C}
    .fil5 {fill:#9DE24C}
    .fil4 {fill:#9EE24C}
    .fil3 {fill:#9FE24C}
    .fil2 {fill:#A0E34D}
    .fil1 {fill:#A1E34D}
    .fil0 {fill:#A2E34D}
    .fil53 {fill:white}
    .fil54 {fill:white;fill-rule:nonzero}
   ]]>
  </style>
    <clipPath id="id0">
     <path d="M14283.55 2024.57l0 0c0,668.25 -546.75,1215 -1215,1215l0 0c-668.25,0 -1215,-546.75 -1215,-1215l0 0c0,-668.25 546.75,-1215 1215,-1215l0 0c668.25,0 1215,546.75 1215,1215zm-1196.41 448.14l722.23 -722.23c34.93,-30.43 57,-75.23 57,-125.19 0,-91.67 -74.32,-165.98 -165.99,-165.98 -49.92,0 -94.69,22.03 -125.11,56.91l-226.15 226.16 -434.55 434.54 13.88 13.88 0.6 -0.6 116.56 116.13c-0.81,-0.8 -1.62,-1.59 -2.44,-2.37 31.59,30.22 51.26,72.79 51.26,119.95 0,16.98 -2.55,33.37 -7.29,48.8zm-44.28 -169.05c-0.87,-0.83 -1.75,-1.64 -2.64,-2.45 0.89,0.81 1.77,1.62 2.64,2.45zm-2.89 -2.68c-0.9,-0.83 -1.82,-1.64 -2.74,-2.44 0.92,0.8 1.84,1.61 2.74,2.44zm-2.97 -2.64c-0.92,-0.8 -1.86,-1.59 -2.8,-2.37 0.94,0.79 1.88,1.57 2.8,2.37zm-3.05 -2.57c-0.96,-0.79 -1.93,-1.57 -2.9,-2.34 0.97,0.77 1.94,1.55 2.9,2.34zm-3.08 -2.48c-0.98,-0.77 -1.96,-1.52 -2.96,-2.27 0.99,0.75 1.98,1.5 2.96,2.27zm-3.18 -2.44c-1.02,-0.76 -2.06,-1.51 -3.1,-2.26 1.04,0.75 2.08,1.5 3.1,2.26zm-3.18 -2.31c-1.02,-0.73 -2.06,-1.45 -3.1,-2.15 1.04,0.7 2.08,1.42 3.1,2.15zm-3.33 -2.31c-1.03,-0.7 -2.07,-1.38 -3.12,-2.05 1.05,0.67 2.09,1.35 3.12,2.05zm-3.33 -2.19c-1.06,-0.68 -2.14,-1.35 -3.22,-2.01 1.08,0.66 2.16,1.33 3.22,2.01zm-3.38 -2.11c-1.1,-0.67 -2.21,-1.32 -3.32,-1.96 1.11,0.64 2.22,1.29 3.32,1.96zm-3.44 -2.03c-1.07,-0.61 -2.15,-1.22 -3.23,-1.81 1.08,0.59 2.16,1.2 3.23,1.81zm-3.57 -2c-1.07,-0.57 -2.14,-1.14 -3.22,-1.69 1.08,0.55 2.15,1.12 3.22,1.69zm-3.54 -1.86c-1.11,-0.56 -2.22,-1.12 -3.34,-1.66 1.12,0.54 2.23,1.1 3.34,1.66zm-3.58 -1.77c-1.13,-0.55 -2.28,-1.08 -3.43,-1.61 1.15,0.53 2.3,1.06 3.43,1.61zm-3.73 -1.74c-1.08,-0.49 -2.18,-0.97 -3.27,-1.43 1.09,0.46 2.19,0.94 3.27,1.43zm-3.67 -1.6c-1.17,-0.5 -2.35,-0.98 -3.53,-1.45 1.18,0.47 2.36,0.95 3.53,1.45zm-3.66 -1.5c-1.23,-0.48 -2.47,-0.95 -3.71,-1.41 1.24,0.46 2.48,0.93 3.71,1.41zm-3.78 -1.44c-1.23,-0.45 -2.47,-0.88 -3.72,-1.31 1.24,0.42 2.49,0.86 3.72,1.31zm-3.93 -1.38c-1.23,-0.41 -2.47,-0.82 -3.72,-1.2 1.25,0.38 2.49,0.79 3.72,1.2zm-3.78 -1.22c-2.59,-0.81 -5.21,-1.55 -7.85,-2.23 2.64,0.68 5.26,1.42 7.85,2.23zm-7.86 -2.23c-1.3,-0.34 -2.61,-0.66 -3.92,-0.96 1.31,0.3 2.62,0.62 3.92,0.96zm-4.08 -1c-1.31,-0.3 -2.63,-0.59 -3.95,-0.86l3.95 0.86zm-4.02 -0.87c-2.64,-0.54 -5.3,-1.02 -7.98,-1.43 2.68,0.41 5.34,0.89 7.98,1.43zm-8.16 -1.46c-1.28,-0.19 -2.56,-0.37 -3.85,-0.54 1.29,0.17 2.57,0.35 3.85,0.54zm-4.24 -0.59c-1.33,-0.16 -2.67,-0.32 -4.01,-0.45l4.01 0.45zm-4.05 -0.46c-1.34,-0.13 -2.69,-0.25 -4.05,-0.36 1.35,0.11 2.71,0.23 4.05,0.36zm-4.23 -0.37c-1.32,-0.1 -2.66,-0.19 -4,-0.26 1.34,0.07 2.68,0.16 4,0.26zm-4.29 -0.27c-1.36,-0.07 -2.71,-0.12 -4.08,-0.15 1.36,0.03 2.72,0.08 4.08,0.15zm-520.15 -112.45c31.93,0 61.75,-9.02 87.06,-24.65 -25.31,15.63 -55.13,24.65 -87.06,24.65l-1.73 -0.01 -0.01 -0.01 1.74 0.02zm130.72 -268.29c-30.39,-38.77 -77.65,-63.68 -130.72,-63.68 -91.66,0 -165.98,74.32 -165.98,165.99 0,45.67 18.44,87.04 48.29,117.04l-0.3 0.29 455.44 455.44 0.73 -0.43c30.44,35.38 75.54,57.78 125.87,57.78 91.67,0 165.99,-74.31 165.99,-165.98 0,-91.67 -74.32,-165.99 -165.99,-165.99 -91.67,0 -165.98,74.32 -165.98,165.99l0.02 1.65 -0.01 -0.01 -0.01 -1.64c0,-91.67 74.31,-165.99 165.98,-165.99 45.73,0 87.14,18.5 117.16,48.41l-69.3 -68.34 4.08 0.05 -4.08 -0.05 -47.86 -47.2 -250.38 -250.38 -82.95 -82.95z"/>
    </clipPath>
 </defs>
 <g id="Слой_x0020_1">
  <metadata id="CorelCorpID_0Corel-Layer"/>
  <g>
   <g style="clip-path:url(#id0)">
    <polygon class="fil0" points="14951.8,2024.57 14541.03,2435.34 12657.78,552.09 13068.55,141.32 "/>
    <polygon id="1" class="fil1" points="14548.55,2427.82 14525.99,2450.38 12642.74,567.13 12665.3,544.57 "/>
    <polygon id="2" class="fil1" points="14533.51,2442.86 14510.96,2465.41 12627.71,582.16 12650.26,559.61 "/>
    <polygon id="3" class="fil2" points="14518.48,2457.89 14495.92,2480.45 12612.67,597.2 12635.23,574.64 "/>
    <polygon id="4" class="fil2" points="14503.44,2472.93 14480.89,2495.48 12597.64,612.23 12620.19,589.68 "/>
    <polygon id="5" class="fil3" points="14488.41,2487.96 14465.85,2510.52 12582.6,627.27 12605.16,604.71 "/>
    <polygon id="6" class="fil3" points="14473.37,2503 14450.82,2525.55 12567.57,642.3 12590.12,619.75 "/>
    <polygon id="7" class="fil4" points="14458.34,2518.03 14435.78,2540.59 12552.53,657.34 12575.09,634.78 "/>
    <polygon id="8" class="fil5" points="14443.3,2533.07 14420.75,2555.62 12537.5,672.37 12560.05,649.82 "/>
    <polygon id="9" class="fil5" points="14428.27,2548.1 14405.71,2570.66 12522.46,687.41 12545.02,664.85 "/>
    <polygon id="10" class="fil6" points="14413.23,2563.14 14390.68,2585.69 12507.43,702.44 12529.98,679.89 "/>
    <polygon id="11" class="fil7" points="14398.2,2578.17 14375.64,2600.73 12492.39,717.48 12514.95,694.92 "/>
    <polygon id="12" class="fil7" points="14383.16,2593.21 14360.61,2615.76 12477.36,732.51 12499.91,709.96 "/>
    <polygon id="13" class="fil8" points="14368.13,2608.24 14345.57,2630.8 12462.32,747.55 12484.88,724.99 "/>
    <polygon id="14" class="fil8" points="14353.09,2623.28 14330.54,2645.83 12447.29,762.58 12469.84,740.03 "/>
    <polygon id="15" class="fil9" points="14338.06,2638.31 14315.5,2660.87 12432.25,777.62 12454.81,755.06 "/>
    <polygon id="16" class="fil10" points="14323.02,2653.35 14300.47,2675.9 12417.22,792.65 12439.77,770.1 "/>
    <polygon id="17" class="fil10" points="14307.99,2668.38 14285.44,2690.93 12402.19,807.68 12424.74,785.13 "/>
    <polygon id="18" class="fil11" points="14292.95,2683.42 14270.4,2705.97 12387.15,822.72 12409.7,800.17 "/>
    <polygon id="19" class="fil12" points="14277.92,2698.45 14255.37,2721 12372.12,837.75 12394.67,815.2 "/>
    <polygon id="20" class="fil13" points="14262.88,2713.49 14240.33,2736.04 12357.08,852.79 12379.63,830.24 "/>
    <polygon id="21" class="fil13" points="14247.85,2728.52 14225.3,2751.07 12342.05,867.82 12364.6,845.27 "/>
    <polygon id="22" class="fil14" points="14232.81,2743.56 14210.26,2766.11 12327.01,882.86 12349.56,860.31 "/>
    <polygon id="23" class="fil15" points="14217.78,2758.59 14195.23,2781.14 12311.98,897.89 12334.53,875.34 "/>
    <polygon id="24" class="fil15" points="14202.74,2773.63 14180.19,2796.18 12296.94,912.93 12319.49,890.38 "/>
    <polygon id="25" class="fil16" points="14187.71,2788.66 14165.16,2811.21 12281.91,927.96 12304.46,905.41 "/>
    <polygon id="26" class="fil17" points="14172.67,2803.7 14150.12,2826.25 12266.87,943 12289.42,920.45 "/>
    <polygon id="27" class="fil18" points="14157.64,2818.73 14135.09,2841.28 12251.84,958.03 12274.39,935.48 "/>
    <polygon id="28" class="fil19" points="14142.6,2833.77 14120.05,2856.32 12236.8,973.07 12259.35,950.52 "/>
    <polygon id="29" class="fil19" points="14127.57,2848.8 14105.02,2871.35 12221.77,988.1 12244.32,965.55 "/>
    <polygon id="30" class="fil20" points="14112.53,2863.84 14089.98,2886.39 12206.73,1003.14 12229.28,980.59 "/>
    <polygon id="31" class="fil21" points="14097.5,2878.87 14074.95,2901.42 12191.7,1018.17 12214.25,995.62 "/>
    <polygon id="32" class="fil22" points="14082.46,2893.91 14059.91,2916.46 12176.66,1033.21 12199.21,1010.66 "/>
    <polygon id="33" class="fil23" points="14067.43,2908.94 14044.88,2931.49 12161.63,1048.24 12184.18,1025.69 "/>
    <polygon id="34" class="fil24" points="14052.39,2923.98 14029.84,2946.53 12146.59,1063.28 12169.14,1040.73 "/>
    <polygon id="35" class="fil24" points="14037.36,2939.01 14014.81,2961.56 12131.56,1078.31 12154.11,1055.76 "/>
    <polygon id="36" class="fil25" points="14022.33,2954.04 13999.77,2976.6 12116.52,1093.35 12139.08,1070.79 "/>
    <polygon id="37" class="fil26" points="14007.29,2969.08 13984.74,2991.63 12101.49,1108.38 12124.04,1085.83 "/>
    <polygon id="38" class="fil27" points="13992.26,2984.11 13969.7,3006.67 12086.45,1123.42 12109.01,1100.86 "/>
    <polygon id="39" class="fil28" points="13977.22,2999.15 13954.67,3021.7 12071.42,1138.45 12093.97,1115.9 "/>
    <polygon id="40" class="fil29" points="13962.19,3014.18 13939.63,3036.74 12056.38,1153.49 12078.94,1130.93 "/>
    <polygon id="41" class="fil30" points="13947.15,3029.22 13924.6,3051.77 12041.35,1168.52 12063.9,1145.97 "/>
    <polygon id="42" class="fil31" points="13932.12,3044.25 13909.56,3066.81 12026.31,1183.56 12048.87,1161 "/>
    <polygon id="43" class="fil32" points="13917.08,3059.29 13894.53,3081.84 12011.28,1198.59 12033.83,1176.04 "/>
    <polygon id="44" class="fil33" points="13902.05,3074.32 13879.49,3096.88 11996.24,1213.63 12018.8,1191.07 "/>
    <polygon id="45" class="fil34" points="13887.01,3089.36 13864.46,3111.91 11981.21,1228.66 12003.76,1206.11 "/>
    <polygon id="46" class="fil35" points="13871.98,3104.39 13849.42,3126.95 11966.17,1243.7 11988.73,1221.14 "/>
    <polygon id="47" class="fil36" points="13856.94,3119.43 13834.39,3141.98 11951.14,1258.73 11973.69,1236.18 "/>
    <polygon id="48" class="fil36" points="13841.91,3134.46 13819.35,3157.02 11936.1,1273.77 11958.66,1251.21 "/>
    <polygon id="49" class="fil37" points="13826.87,3149.5 13804.32,3172.05 11921.07,1288.8 11943.62,1266.25 "/>
    <polygon id="50" class="fil38" points="13811.84,3164.53 13789.28,3187.09 11906.03,1303.84 11928.59,1281.28 "/>
    <polygon id="51" class="fil39" points="13796.8,3179.57 13774.25,3202.12 11891,1318.87 11913.55,1296.32 "/>
    <polygon id="52" class="fil39" points="13781.77,3194.6 13759.22,3217.15 11875.97,1333.9 11898.52,1311.35 "/>
    <polygon id="53" class="fil40" points="13766.73,3209.64 13744.18,3232.19 11860.93,1348.94 11883.48,1326.39 "/>
    <polygon id="54" class="fil41" points="13751.7,3224.67 13729.15,3247.22 11845.9,1363.97 11868.45,1341.42 "/>
    <polygon id="55" class="fil42" points="13736.66,3239.71 13714.11,3262.26 11830.86,1379.01 11853.41,1356.46 "/>
    <polygon id="56" class="fil42" points="13721.63,3254.74 13699.08,3277.29 11815.83,1394.04 11838.38,1371.49 "/>
    <polygon id="57" class="fil43" points="13706.59,3269.78 13684.04,3292.33 11800.79,1409.08 11823.34,1386.53 "/>
    <polygon id="58" class="fil44" points="13691.56,3284.81 13669.01,3307.36 11785.76,1424.11 11808.31,1401.56 "/>
    <polygon id="59" class="fil44" points="13676.52,3299.85 13653.97,3322.4 11770.72,1439.15 11793.27,1416.6 "/>
    <polygon id="60" class="fil45" points="13661.49,3314.88 13638.94,3337.43 11755.69,1454.18 11778.24,1431.63 "/>
    <polygon id="61" class="fil46" points="13646.45,3329.92 13623.9,3352.47 11740.65,1469.22 11763.2,1446.67 "/>
    <polygon id="62" class="fil46" points="13631.42,3344.95 13608.87,3367.5 11725.62,1484.25 11748.17,1461.7 "/>
    <polygon id="63" class="fil47" points="13616.38,3359.99 13593.83,3382.54 11710.58,1499.29 11733.13,1476.74 "/>
    <polygon id="64" class="fil48" points="13601.35,3375.02 13578.8,3397.57 11695.55,1514.32 11718.1,1491.77 "/>
    <polygon id="65" class="fil48" points="13586.31,3390.06 13563.76,3412.61 11680.51,1529.36 11703.06,1506.81 "/>
    <polygon id="66" class="fil49" points="13571.28,3405.09 13548.73,3427.64 11665.48,1544.39 11688.03,1521.84 "/>
    <polygon id="67" class="fil50" points="13556.24,3420.13 13533.69,3442.68 11650.44,1559.43 11672.99,1536.88 "/>
    <polygon id="68" class="fil50" points="13541.21,3435.16 13518.66,3457.71 11635.41,1574.46 11657.96,1551.91 "/>
    <polygon id="69" class="fil51" points="13526.17,3450.2 13503.62,3472.75 11620.37,1589.5 11642.92,1566.95 "/>
    <polygon id="70" class="fil51" points="13511.14,3465.23 13488.59,3487.78 11605.34,1604.53 11627.89,1581.98 "/>
    <polygon id="71" class="fil52" points="13496.1,3480.27 13068.55,3907.82 11185.3,2024.57 11612.85,1597.02 "/>
   </g>
  </g>
  <g>
   <circle class="fil53" cx="13700.38" cy="1625.29" r="165.98"/>
   <path class="fil53" d="M12630.38 1960.35l-94.21 -94.21 -237.46 230.9 455.45 455.44 42.48 -25.14 -450.24 -450.24 0.3 -0.29c30.07,30.23 71.7,48.94 117.7,48.94 91.48,0 165.67,-74 165.98,-165.4zm167.61 566.19l0 0 -0.08 -0.1 0.08 0.1zm289.15 -53.83l730.33 -730.33 -234.18 -234.18 -234.17 234.18 -434.55 434.54 13.88 13.88 0.6 -0.6 116.56 116.13c-0.81,-0.8 -1.62,-1.59 -2.44,-2.37 31.59,30.22 51.26,72.79 51.26,119.95 0,16.98 -2.55,33.37 -7.29,48.8zm-44.28 -169.05c-0.87,-0.83 -1.75,-1.64 -2.64,-2.45 0.89,0.81 1.77,1.62 2.64,2.45zm-2.89 -2.68c-0.9,-0.83 -1.82,-1.64 -2.74,-2.44 0.92,0.8 1.84,1.61 2.74,2.44zm-2.97 -2.64c-0.92,-0.8 -1.86,-1.59 -2.8,-2.37 0.94,0.79 1.88,1.57 2.8,2.37zm-3.05 -2.57c-0.96,-0.79 -1.93,-1.57 -2.9,-2.34 0.97,0.77 1.94,1.55 2.9,2.34zm-3.08 -2.48c-0.98,-0.77 -1.96,-1.52 -2.96,-2.27 0.99,0.75 1.98,1.5 2.96,2.27zm-3.18 -2.44c-1.02,-0.76 -2.06,-1.51 -3.1,-2.26 1.04,0.75 2.08,1.5 3.1,2.26zm-3.18 -2.31c-1.02,-0.73 -2.06,-1.45 -3.1,-2.15 1.04,0.7 2.08,1.42 3.1,2.15zm-3.33 -2.31c-1.03,-0.7 -2.07,-1.38 -3.12,-2.05 1.05,0.67 2.09,1.35 3.12,2.05zm-3.33 -2.19c-1.06,-0.68 -2.14,-1.35 -3.22,-2.01 1.08,0.66 2.16,1.33 3.22,2.01zm-3.38 -2.11c-1.1,-0.67 -2.21,-1.32 -3.32,-1.96 1.11,0.64 2.22,1.29 3.32,1.96zm-3.44 -2.03c-1.07,-0.61 -2.15,-1.22 -3.23,-1.81 1.08,0.59 2.16,1.2 3.23,1.81zm-3.57 -2c-1.07,-0.57 -2.14,-1.14 -3.22,-1.69 1.08,0.55 2.15,1.12 3.22,1.69zm-3.54 -1.86c-1.11,-0.56 -2.22,-1.12 -3.34,-1.66 1.12,0.54 2.23,1.1 3.34,1.66zm-3.58 -1.77c-1.13,-0.55 -2.28,-1.08 -3.43,-1.61 1.15,0.53 2.3,1.06 3.43,1.61zm-3.73 -1.74c-1.08,-0.49 -2.18,-0.97 -3.27,-1.43 1.09,0.46 2.19,0.94 3.27,1.43zm-3.67 -1.6c-1.17,-0.5 -2.35,-0.98 -3.53,-1.45 1.18,0.47 2.36,0.95 3.53,1.45zm-3.66 -1.5c-1.23,-0.48 -2.47,-0.95 -3.71,-1.41 1.24,0.46 2.48,0.93 3.71,1.41zm-3.78 -1.44c-1.23,-0.45 -2.47,-0.88 -3.72,-1.31 1.24,0.42 2.49,0.86 3.72,1.31zm-3.93 -1.38c-1.23,-0.41 -2.47,-0.82 -3.72,-1.2 1.25,0.38 2.49,0.79 3.72,1.2zm-3.78 -1.22c-2.59,-0.81 -5.21,-1.55 -7.85,-2.23 2.64,0.68 5.26,1.42 7.85,2.23zm-7.86 -2.23c-1.3,-0.34 -2.61,-0.66 -3.92,-0.96 1.31,0.3 2.62,0.62 3.92,0.96zm-4.08 -1c-1.31,-0.3 -2.63,-0.59 -3.95,-0.86zm-0.07 -0.01c-2.64,-0.54 -5.3,-1.02 -7.98,-1.43 2.68,0.41 5.34,0.89 7.98,1.43zm-8.16 -1.46c-1.28,-0.19 -2.56,-0.37 -3.85,-0.54 1.29,0.17 2.57,0.35 3.85,0.54zm-4.24 -0.59c-1.33,-0.16 -2.67,-0.32 -4.01,-0.45zm-0.04 -0.01c-1.34,-0.13 -2.69,-0.25 -4.05,-0.36 1.35,0.11 2.71,0.23 4.05,0.36zm-4.23 -0.37c-1.32,-0.1 -2.66,-0.19 -4,-0.26 1.34,0.07 2.68,0.16 4,0.26zm-4.29 -0.27c-1.36,-0.07 -2.71,-0.12 -4.08,-0.15 1.36,0.03 2.72,0.08 4.08,0.15zm-4.16 -0.16c-1.41,-0.03 -2.83,-0.05 -4.25,-0.05 1.42,0 2.84,0.02 4.25,0.05zm-170.23 165.93c0,1.4 0.02,2.79 0.05,4.18 -0.03,-1.39 -0.05,-2.78 -0.05,-4.18zm0.06 4.45c0.03,1.28 0.08,2.55 0.14,3.82 -0.06,-1.27 -0.11,-2.54 -0.14,-3.82zm0.17 4.3c0.07,1.33 0.15,2.65 0.25,3.97 -0.1,-1.32 -0.18,-2.64 -0.25,-3.97zm0.26 4.14c0.1,1.34 0.22,2.67 0.36,3.99 -0.14,-1.32 -0.26,-2.65 -0.36,-3.99zm0.38 4.19c0.13,1.3 0.28,2.6 0.44,3.9 -0.16,-1.29 -0.31,-2.6 -0.44,-3.9zm0.47 4.16c0.18,1.34 0.36,2.67 0.56,4.01 -0.2,-1.34 -0.38,-2.67 -0.56,-4.01zm0.58 4.1c0.2,1.31 0.42,2.62 0.65,3.92 -0.23,-1.3 -0.45,-2.61 -0.65,-3.92zm0.69 4.16c0.48,2.65 1.02,5.28 1.62,7.89 -0.6,-2.61 -1.14,-5.24 -1.62,-7.89zm1.67 8.14c0.29,1.23 0.59,2.45 0.9,3.67 -0.31,-1.22 -0.61,-2.44 -0.9,-3.67zm0.98 3.98c0.66,2.57 1.39,5.12 2.17,7.64 -0.78,-2.52 -1.51,-5.07 -2.17,-7.64zm2.24 7.88c0.38,1.21 0.77,2.42 1.18,3.62 -0.41,-1.2 -0.8,-2.41 -1.18,-3.62zm1.25 3.82c0.84,2.5 1.75,4.97 2.71,7.41 -0.96,-2.44 -1.87,-4.92 -2.71,-7.41zm2.81 7.67c0.47,1.17 0.94,2.33 1.43,3.49 -0.49,-1.15 -0.96,-2.32 -1.43,-3.49zm1.51 3.7c0.51,1.19 1.03,2.38 1.57,3.57 -0.54,-1.19 -1.06,-2.38 -1.57,-3.57zm1.63 3.71c0.52,1.14 1.05,2.28 1.59,3.41 -0.54,-1.13 -1.07,-2.27 -1.59,-3.41zm1.74 3.72c0.54,1.11 1.09,2.22 1.65,3.32 -0.56,-1.1 -1.11,-2.21 -1.65,-3.32zm1.75 3.51c0.57,1.12 1.16,2.22 1.75,3.32 -0.6,-1.1 -1.18,-2.2 -1.75,-3.32zm1.96 3.71c0.59,1.07 1.18,2.13 1.79,3.19 -0.61,-1.06 -1.2,-2.12 -1.79,-3.19zm1.87 3.34c0.64,1.11 1.3,2.22 1.96,3.31 -0.66,-1.09 -1.32,-2.2 -1.96,-3.31zm2.02 3.41c0.65,1.08 1.32,2.15 2,3.21 -0.68,-1.06 -1.35,-2.13 -2,-3.21zm2.24 3.58c0.65,1.01 1.31,2.01 1.98,3.01 -0.67,-1 -1.33,-2 -1.98,-3.01zm2.11 3.21c0.72,1.06 1.46,2.12 2.2,3.17 -0.74,-1.05 -1.48,-2.11 -2.2,-3.17zm2.29 3.29c0.7,0.99 1.42,1.98 2.15,2.95 -0.73,-0.97 -1.45,-1.96 -2.15,-2.95zm2.41 3.3c0.73,0.98 1.48,1.94 2.23,2.9 -0.75,-0.96 -1.49,-1.92 -2.23,-2.9z"/>
   <path class="fil53" d="M12416.71 2145.69c91.67,0 165.99,-74.31 165.99,-165.98 0,-91.67 -74.32,-165.99 -165.99,-165.99 -91.66,0 -165.98,74.32 -165.98,165.99 0,91.67 74.32,165.98 165.98,165.98zm338.18 406.36c-25,-29.06 -40.11,-66.87 -40.11,-108.2 0,-91.67 74.31,-165.99 165.98,-165.99 45.73,0 87.14,18.5 117.16,48.41l-117.16 -115.54 -333.34 -333.34c22.1,28.19 35.28,63.71 35.28,102.32 0,91.67 -74.32,165.98 -165.99,165.98 -46,0 -87.63,-18.72 -117.69,-48.95l455.87 455.31zm125.87 57.78c91.67,0 165.99,-74.31 165.99,-165.98 0,-91.67 -74.32,-165.99 -165.99,-165.99 -91.67,0 -165.98,74.32 -165.98,165.99 0,91.67 74.31,165.98 165.98,165.98z"/>
  </g>
  <path class="fil54" d="M89.7 3150.18l0 -3097.91 2210.32 0 0 626.54 -1414.08 0 0 583.03 1322.7 0 0 626.55 -1322.7 0 0 635.25 1414.08 0 0 626.54 -2210.32 0zm4029.03 -1139.96l944.17 1139.96 -922.41 0 -469.91 -591.74 -469.9 591.74 -918.07 0 1816.71 -2210.3 907.02 0 -887.61 1070.34zm-922.25 -36.27l-857.31 -1034.07 922.41 0 378.81 493.95 -443.91 540.12zm4229.01 -1034.07l0 2210.3 -774.48 0 0 -300.22c-63.81,104.43 -156.63,186.37 -278.46,245.84 -121.83,59.46 -255.26,89.19 -400.3,89.19 -188.54,0 -356.78,-46.42 -504.71,-139.24 -147.93,-92.82 -263.24,-225.52 -345.9,-398.11 -82.67,-172.59 -124,-372.01 -124,-598.26 0,-229.15 42.05,-432.2 126.17,-609.14 84.12,-176.94 200.15,-314.73 348.08,-413.34 147.94,-98.63 314.72,-147.94 500.36,-147.94 145.04,0 277.74,31.18 398.12,93.55 120.38,62.36 213.93,145.75 280.64,250.18l0 -282.81 774.48 0zm-1209.58 1657.73c139.23,0 246.56,-47.87 321.98,-143.59 75.41,-95.72 113.12,-233.5 113.12,-413.34 0,-182.74 -37.71,-322.7 -113.12,-419.88 -75.42,-97.17 -182.75,-145.76 -321.98,-145.76 -136.33,0 -243.66,50.04 -321.97,150.12 -78.32,100.07 -117.48,241.48 -117.48,424.22 0,176.94 37.71,312.55 113.13,406.82 75.41,94.27 184.19,141.41 326.32,141.41zm4494.58 -1718.65c255.26,0 444.53,78.32 567.8,234.96 123.28,156.63 184.92,395.94 184.92,717.91l0 1318.35 -787.52 0 0 -1296.59c0,-130.54 -19.58,-224.81 -58.74,-282.82 -39.16,-58.02 -105.15,-87.02 -197.97,-87.02 -110.23,0 -195.8,40.61 -256.71,121.82 -60.92,81.23 -91.37,195.81 -91.37,343.73l0 1200.88 -787.54 0 0 -1296.59c0,-130.54 -20.3,-224.81 -60.9,-282.82 -40.61,-58.02 -105.89,-87.02 -195.81,-87.02 -110.22,0 -195.07,40.61 -254.53,121.82 -59.46,81.23 -89.2,195.81 -89.2,343.73l0 1200.88 -787.52 0 0 -1575.06c0,-237.85 -11.61,-449.61 -34.81,-635.24l739.67 0 39.15 308.91c66.72,-118.92 160.27,-210.3 280.65,-274.11 120.38,-63.81 258.89,-95.72 415.52,-95.72 316.17,0 530.82,133.43 643.94,400.29 78.32,-121.82 182.02,-219 311.1,-291.51 129.08,-72.52 269.03,-108.78 419.87,-108.78z"/>
  <path class="fil54" d="M1537.07 5033.48l-1174.09 0c2.12,203.64 49.32,357.43 141.6,461.37 92.27,103.94 226.43,155.91 402.49,155.91 186.67,0 358.49,-62.58 515.46,-187.73l85.91 187.73c-70.01,65.75 -159.62,117.72 -268.87,155.9 -109.24,38.19 -221.13,57.28 -335.67,57.28 -250.31,0 -446.52,-73.71 -588.64,-221.14 -142.13,-147.42 -213.19,-349.47 -213.19,-606.13 0,-163.34 31.82,-308.11 95.46,-434.32 63.63,-126.21 152.73,-224.32 267.27,-294.32 114.55,-70 245,-105 391.36,-105 212.12,0 378.64,69.47 499.55,208.41 120.91,138.94 181.36,330.38 181.36,574.32l0 47.72zm-677.72 -629.99c-133.64,0 -242.35,40.3 -326.14,120.9 -83.79,80.61 -137.35,194.1 -160.68,340.46l932.27 0c-12.73,-150.61 -56.74,-265.15 -132.04,-343.63 -75.31,-78.49 -179.78,-117.73 -313.41,-117.73zm2453.71 -665l0 2103.18 -254.54 0 0 -289.55c-46.67,99.7 -117.2,176.59 -211.59,230.69 -94.4,54.08 -204.17,81.13 -329.32,81.13 -140,0 -263.56,-35 -370.68,-105 -107.12,-70 -190.38,-168.11 -249.77,-294.32 -59.4,-126.21 -89.1,-272.05 -89.1,-437.5 0,-165.45 29.17,-310.22 87.51,-434.31 58.33,-124.09 141.58,-220.08 249.77,-287.96 108.18,-67.88 232.27,-101.82 372.27,-101.82 125.15,0 234.39,27.04 327.73,81.14 93.33,54.09 163.33,129.93 210,227.49l0 -539.59 257.72 -233.58zm-744.54 1912.27c156.97,0 277.87,-53.56 362.73,-160.68 84.85,-107.12 127.27,-259.32 127.27,-456.6 0,-195.14 -42.42,-346.28 -127.27,-453.4 -84.86,-107.12 -205.76,-160.69 -362.73,-160.69 -156.97,0 -279.47,53.04 -367.5,159.1 -88.03,106.06 -132.05,255.6 -132.05,448.63 0,197.27 44.02,350.53 132.05,459.77 88.03,109.24 210.53,163.87 367.5,163.87zm2558.72 -1409.55l0 1600.46 -251.37 0 0 -276.82c-50.9,97.58 -121.96,171.82 -213.18,222.72 -91.21,50.91 -194.09,76.37 -308.63,76.37 -188.79,0 -331.97,-53.03 -429.55,-159.09 -97.57,-106.06 -146.36,-263.03 -146.36,-470.91l0 -992.73 257.72 0 0 986.37c0,144.24 29.7,250.3 89.1,318.17 59.39,67.89 149.54,101.83 270.45,101.83 142.12,0 256.67,-46.14 343.64,-138.41 86.96,-92.27 130.45,-213.72 130.45,-364.32l0 -903.64 257.73 0zm1142.81 1622.73c-154.85,0 -290.08,-33.94 -405.68,-101.82 -115.61,-67.88 -204.7,-163.86 -267.28,-287.95 -62.57,-124.09 -93.86,-268.87 -93.86,-434.32 0,-165.45 31.82,-311.29 95.45,-437.5 63.64,-126.21 154.32,-224.32 272.05,-294.32 117.73,-70 255.08,-105 412.05,-105 108.18,0 212.65,18.56 313.41,55.69 100.75,37.12 184.01,88.55 249.77,154.31l-85.91 190.91c-80.61,-63.63 -158.57,-110.3 -233.87,-140 -75.3,-29.7 -152.19,-44.55 -230.68,-44.55 -163.33,0 -291.66,54.62 -385,163.87 -93.33,109.24 -139.99,261.44 -139.99,456.59 0,193.03 46.13,343.11 138.4,450.23 92.28,107.12 221.14,160.68 386.59,160.68 78.49,0 155.38,-14.85 230.68,-44.54 75.3,-29.7 153.26,-76.37 233.87,-140.01l85.91 190.91c-67.89,63.64 -153.26,114.01 -256.14,151.14 -102.88,37.12 -209.47,55.68 -319.77,55.68zm2288.26 -1622.73l0 1600.46 -254.55 0 0 -289.55c-46.66,99.7 -117.19,176.59 -211.58,230.69 -94.4,54.08 -204.17,81.13 -329.32,81.13 -142.12,0 -266.75,-33.94 -373.87,-101.82 -107.12,-67.88 -189.84,-163.86 -248.18,-287.95 -58.33,-124.09 -87.5,-268.87 -87.5,-434.32 0,-165.45 29.7,-311.29 89.1,-437.5 59.38,-126.21 142.65,-224.32 249.77,-294.32 107.12,-70 230.68,-105 370.68,-105 125.15,0 234.39,27.58 327.73,82.73 93.33,55.15 164.39,132.58 213.17,232.27l0 -276.82 254.55 0zm-744.55 1409.55c156.98,0 277.88,-53.56 362.74,-160.68 84.84,-107.12 127.26,-259.32 127.26,-456.6 0,-197.27 -42.42,-348.93 -127.26,-454.99 -84.86,-106.06 -205.76,-159.1 -362.74,-159.1 -156.96,0 -279.46,54.62 -367.49,163.87 -88.03,109.24 -132.05,261.44 -132.05,456.59 0,195.15 43.49,345.76 130.46,451.82 86.97,106.06 210,159.09 369.08,159.09zm1562.82 -1205.91l0 875c0,118.78 24.39,202.05 73.18,249.77 48.79,47.73 117.73,71.59 206.81,71.59 59.4,0 116.68,-9.54 171.83,-28.63l0 219.54c-65.76,21.21 -140.01,31.82 -222.73,31.82 -152.73,0 -272.05,-42.96 -357.95,-128.87 -85.91,-85.91 -128.87,-212.65 -128.87,-380.22l0 -910 -311.82 0 0 -203.64 311.82 0 0 -269.14 257.73 -233.58 0 502.72 458.18 0 0 203.64 -458.18 0zm745.08 1396.82l0 -1600.46 257.73 0 0 1600.46 -257.73 0zm1394.17 22.27c-150.6,0 -283.18,-33.94 -397.73,-101.82 -114.54,-67.88 -203.1,-164.39 -265.68,-289.55 -62.57,-125.14 -93.86,-271.51 -93.86,-439.09 0,-167.57 31.29,-313.94 93.86,-439.08 62.58,-125.16 151.14,-221.67 265.68,-289.55 114.55,-67.88 247.13,-101.82 397.73,-101.82 150.61,0 283.18,33.94 397.73,101.82 114.55,67.88 203.1,164.39 265.68,289.55 62.58,125.14 93.86,271.51 93.86,439.08 0,167.58 -31.28,313.95 -93.86,439.09 -62.58,125.16 -151.13,221.67 -265.68,289.55 -114.55,67.88 -247.12,101.82 -397.73,101.82zm0 -213.18c159.09,0 281.06,-52.5 365.91,-157.51 84.85,-105 127.27,-258.25 127.27,-459.77 0,-195.14 -43.49,-346.28 -130.45,-453.4 -86.97,-107.12 -207.88,-160.69 -362.73,-160.69 -156.97,0 -278.94,53.57 -365.91,160.69 -86.96,107.12 -130.45,258.26 -130.45,453.4 0,201.52 42.95,354.77 128.86,459.77 85.91,105.01 208.41,157.51 367.5,157.51zm1931.91 -1447.73c383.93,0 575.9,211.07 575.9,633.18l0 1005.46 -257.73 0 0 -992.73c0,-148.48 -29.69,-257.2 -89.08,-326.14 -59.4,-68.93 -152.73,-103.41 -280,-103.41 -148.49,0 -267.28,45.61 -356.37,136.82 -89.09,91.22 -133.63,214.24 -133.63,369.09l0 916.37 -257.73 0 0 -1151.82c0,-165.46 -8.48,-315 -25.45,-448.64l244.99 0 25.46 286.37c48.79,-103.94 121.97,-184.02 219.55,-240.23 97.57,-56.21 208.93,-84.32 334.09,-84.32z"/>
 </g>
</svg>
