<?xml version="1.0" encoding="UTF-8"?>
<!DOCTYPE svg PUBLIC "-//W3C//DTD SVG 1.1//EN" "http://www.w3.org/Graphics/SVG/1.1/DTD/svg11.dtd">
<!-- Creator: CorelDRAW 2018 (64-Bit) -->
<svg xmlns="http://www.w3.org/2000/svg" xml:space="preserve" width="143.338mm" height="59.117mm" version="1.1" style="shape-rendering:geometricPrecision; text-rendering:geometricPrecision; image-rendering:optimizeQuality; fill-rule:evenodd; clip-rule:evenodd"
viewBox="0 0 14333.8 5911.7"
 xmlns:xlink="http://www.w3.org/1999/xlink">
 <defs>
  <style type="text/css">
   <![CDATA[
    .fil0 {fill:#1A1A1A}
    .fil1 {fill:#1A1A1A;fill-rule:nonzero}
   ]]>
  </style>
 </defs>
 <g id="Слой_x0020_1">
  <metadata id="CorelCorpID_0Corel-Layer"/>
  <path class="fil0" d="M14283.55 2024.57l0 0c0,668.25 -546.75,1215 -1215,1215l0 0c-668.25,0 -1215,-546.75 -1215,-1215l0 0c0,-668.25 546.75,-1215 1215,-1215l0 0c668.25,0 1215,546.75 1215,1215zm-1196.41 448.14l722.23 -722.23c34.93,-30.43 57,-75.23 57,-125.19 0,-91.67 -74.32,-165.98 -165.99,-165.98 -49.92,0 -94.69,22.03 -125.11,56.91l-226.15 226.16 -434.55 434.54 13.88 13.88 0.6 -0.6 116.56 116.13c-0.81,-0.8 -1.62,-1.59 -2.44,-2.37 31.59,30.22 51.26,72.79 51.26,119.95 0,16.98 -2.55,33.37 -7.29,48.8zm-44.28 -169.05c-0.87,-0.83 -1.75,-1.64 -2.64,-2.45 0.89,0.81 1.77,1.62 2.64,2.45zm-2.89 -2.68c-0.9,-0.83 -1.82,-1.64 -2.74,-2.44 0.92,0.8 1.84,1.61 2.74,2.44zm-2.97 -2.64c-0.92,-0.8 -1.86,-1.59 -2.8,-2.37 0.94,0.79 1.88,1.57 2.8,2.37zm-3.05 -2.57c-0.96,-0.79 -1.93,-1.57 -2.9,-2.34 0.97,0.77 1.94,1.55 2.9,2.34zm-3.08 -2.48c-0.98,-0.77 -1.96,-1.52 -2.96,-2.27 0.99,0.75 1.98,1.5 2.96,2.27zm-3.18 -2.44c-1.02,-0.76 -2.06,-1.51 -3.1,-2.26 1.04,0.75 2.08,1.5 3.1,2.26zm-3.18 -2.31c-1.02,-0.73 -2.06,-1.45 -3.1,-2.15 1.04,0.7 2.08,1.42 3.1,2.15zm-3.33 -2.31c-1.03,-0.7 -2.07,-1.38 -3.12,-2.05 1.05,0.67 2.09,1.35 3.12,2.05zm-3.33 -2.19c-1.06,-0.68 -2.14,-1.35 -3.22,-2.01 1.08,0.66 2.16,1.33 3.22,2.01zm-3.38 -2.11c-1.1,-0.67 -2.21,-1.32 -3.32,-1.96 1.11,0.64 2.22,1.29 3.32,1.96zm-3.44 -2.03c-1.07,-0.61 -2.15,-1.22 -3.23,-1.81 1.08,0.59 2.16,1.2 3.23,1.81zm-3.57 -2c-1.07,-0.57 -2.14,-1.14 -3.22,-1.69 1.08,0.55 2.15,1.12 3.22,1.69zm-3.54 -1.86c-1.11,-0.56 -2.22,-1.12 -3.34,-1.66 1.12,0.54 2.23,1.1 3.34,1.66zm-3.58 -1.77c-1.13,-0.55 -2.28,-1.08 -3.43,-1.61 1.15,0.53 2.3,1.06 3.43,1.61zm-3.73 -1.74c-1.08,-0.49 -2.18,-0.97 -3.27,-1.43 1.09,0.46 2.19,0.94 3.27,1.43zm-3.67 -1.6c-1.17,-0.5 -2.35,-0.98 -3.53,-1.45 1.18,0.47 2.36,0.95 3.53,1.45zm-3.66 -1.5c-1.23,-0.48 -2.47,-0.95 -3.71,-1.41 1.24,0.46 2.48,0.93 3.71,1.41zm-3.78 -1.44c-1.23,-0.45 -2.47,-0.88 -3.72,-1.31 1.24,0.42 2.49,0.86 3.72,1.31zm-3.93 -1.38c-1.23,-0.41 -2.47,-0.82 -3.72,-1.2 1.25,0.38 2.49,0.79 3.72,1.2zm-3.78 -1.22c-2.59,-0.81 -5.21,-1.55 -7.85,-2.23 2.64,0.68 5.26,1.42 7.85,2.23zm-7.86 -2.23c-1.3,-0.34 -2.61,-0.66 -3.92,-0.96 1.31,0.3 2.62,0.62 3.92,0.96zm-4.08 -1c-1.31,-0.3 -2.63,-0.59 -3.95,-0.86l3.95 0.86zm-4.02 -0.87c-2.64,-0.54 -5.3,-1.02 -7.98,-1.43 2.68,0.41 5.34,0.89 7.98,1.43zm-8.16 -1.46c-1.28,-0.19 -2.56,-0.37 -3.85,-0.54 1.29,0.17 2.57,0.35 3.85,0.54zm-4.24 -0.59c-1.33,-0.16 -2.67,-0.32 -4.01,-0.45l4.01 0.45zm-4.05 -0.46c-1.34,-0.13 -2.69,-0.25 -4.05,-0.36 1.35,0.11 2.71,0.23 4.05,0.36zm-4.23 -0.37c-1.32,-0.1 -2.66,-0.19 -4,-0.26 1.34,0.07 2.68,0.16 4,0.26zm-4.29 -0.27c-1.36,-0.07 -2.71,-0.12 -4.08,-0.15 1.36,0.03 2.72,0.08 4.08,0.15zm-520.15 -112.45c31.93,0 61.75,-9.02 87.06,-24.65 -25.31,15.63 -55.13,24.65 -87.06,24.65l-1.73 -0.01 -0.01 -0.01 1.74 0.02zm130.72 -268.29c-30.39,-38.77 -77.65,-63.68 -130.72,-63.68 -91.66,0 -165.98,74.32 -165.98,165.99 0,45.67 18.44,87.04 48.29,117.04l-0.3 0.29 455.44 455.44 0.73 -0.43c30.44,35.38 75.54,57.78 125.87,57.78 91.67,0 165.99,-74.31 165.99,-165.98 0,-91.67 -74.32,-165.99 -165.99,-165.99 -91.67,0 -165.98,74.32 -165.98,165.99l0.02 1.65 -0.01 -0.01 -0.01 -1.64c0,-91.67 74.31,-165.99 165.98,-165.99 45.73,0 87.14,18.5 117.16,48.41l-69.3 -68.34 4.08 0.05 -4.08 -0.05 -47.86 -47.2 -250.38 -250.38 -82.95 -82.95z"/>
  <path class="fil1" d="M89.7 3150.18l0 -3097.91 2210.32 0 0 626.54 -1414.08 0 0 583.03 1322.7 0 0 626.55 -1322.7 0 0 635.25 1414.08 0 0 626.54 -2210.32 0zm4029.03 -1139.96l944.17 1139.96 -922.41 0 -469.91 -591.74 -469.9 591.74 -918.07 0 1816.71 -2210.3 907.02 0 -887.61 1070.34zm-922.25 -36.27l-857.31 -1034.07 922.41 0 378.81 493.95 -443.91 540.12zm4229.01 -1034.07l0 2210.3 -774.48 0 0 -300.22c-63.81,104.43 -156.63,186.37 -278.46,245.84 -121.83,59.46 -255.26,89.19 -400.3,89.19 -188.54,0 -356.78,-46.42 -504.71,-139.24 -147.93,-92.82 -263.24,-225.52 -345.9,-398.11 -82.67,-172.59 -124,-372.01 -124,-598.26 0,-229.15 42.05,-432.2 126.17,-609.14 84.12,-176.94 200.15,-314.73 348.08,-413.34 147.94,-98.63 314.72,-147.94 500.36,-147.94 145.04,0 277.74,31.18 398.12,93.55 120.38,62.36 213.93,145.75 280.64,250.18l0 -282.81 774.48 0zm-1209.58 1657.73c139.23,0 246.56,-47.87 321.98,-143.59 75.41,-95.72 113.12,-233.5 113.12,-413.34 0,-182.74 -37.71,-322.7 -113.12,-419.88 -75.42,-97.17 -182.75,-145.76 -321.98,-145.76 -136.33,0 -243.66,50.04 -321.97,150.12 -78.32,100.07 -117.48,241.48 -117.48,424.22 0,176.94 37.71,312.55 113.13,406.82 75.41,94.27 184.19,141.41 326.32,141.41zm4494.58 -1718.65c255.26,0 444.53,78.32 567.8,234.96 123.28,156.63 184.92,395.94 184.92,717.91l0 1318.35 -787.52 0 0 -1296.59c0,-130.54 -19.58,-224.81 -58.74,-282.82 -39.16,-58.02 -105.15,-87.02 -197.97,-87.02 -110.23,0 -195.8,40.61 -256.71,121.82 -60.92,81.23 -91.37,195.81 -91.37,343.73l0 1200.88 -787.54 0 0 -1296.59c0,-130.54 -20.3,-224.81 -60.9,-282.82 -40.61,-58.02 -105.89,-87.02 -195.81,-87.02 -110.22,0 -195.07,40.61 -254.53,121.82 -59.46,81.23 -89.2,195.81 -89.2,343.73l0 1200.88 -787.52 0 0 -1575.06c0,-237.85 -11.61,-449.61 -34.81,-635.24l739.67 0 39.15 308.91c66.72,-118.92 160.27,-210.3 280.65,-274.11 120.38,-63.81 258.89,-95.72 415.52,-95.72 316.17,0 530.82,133.43 643.94,400.29 78.32,-121.82 182.02,-219 311.1,-291.51 129.08,-72.52 269.03,-108.78 419.87,-108.78z"/>
  <path class="fil1" d="M1537.07 5033.48l-1174.09 0c2.12,203.64 49.32,357.43 141.6,461.37 92.27,103.94 226.43,155.91 402.49,155.91 186.67,0 358.49,-62.58 515.46,-187.73l85.91 187.73c-70.01,65.75 -159.62,117.72 -268.87,155.9 -109.24,38.19 -221.13,57.28 -335.67,57.28 -250.31,0 -446.52,-73.71 -588.64,-221.14 -142.13,-147.42 -213.19,-349.47 -213.19,-606.13 0,-163.34 31.82,-308.11 95.46,-434.32 63.63,-126.21 152.73,-224.32 267.27,-294.32 114.55,-70 245,-105 391.36,-105 212.12,0 378.64,69.47 499.55,208.41 120.91,138.94 181.36,330.38 181.36,574.32l0 47.72zm-677.72 -629.99c-133.64,0 -242.35,40.3 -326.14,120.9 -83.79,80.61 -137.35,194.1 -160.68,340.46l932.27 0c-12.73,-150.61 -56.74,-265.15 -132.04,-343.63 -75.31,-78.49 -179.78,-117.73 -313.41,-117.73zm2453.71 -665l0 2103.18 -254.54 0 0 -289.55c-46.67,99.7 -117.2,176.59 -211.59,230.69 -94.4,54.08 -204.17,81.13 -329.32,81.13 -140,0 -263.56,-35 -370.68,-105 -107.12,-70 -190.38,-168.11 -249.77,-294.32 -59.4,-126.21 -89.1,-272.05 -89.1,-437.5 0,-165.45 29.17,-310.22 87.51,-434.31 58.33,-124.09 141.58,-220.08 249.77,-287.96 108.18,-67.88 232.27,-101.82 372.27,-101.82 125.15,0 234.39,27.04 327.73,81.14 93.33,54.09 163.33,129.93 210,227.49l0 -539.59 257.72 -233.58zm-744.54 1912.27c156.97,0 277.87,-53.56 362.73,-160.68 84.85,-107.12 127.27,-259.32 127.27,-456.6 0,-195.14 -42.42,-346.28 -127.27,-453.4 -84.86,-107.12 -205.76,-160.69 -362.73,-160.69 -156.97,0 -279.47,53.04 -367.5,159.1 -88.03,106.06 -132.05,255.6 -132.05,448.63 0,197.27 44.02,350.53 132.05,459.77 88.03,109.24 210.53,163.87 367.5,163.87zm2558.72 -1409.55l0 1600.46 -251.37 0 0 -276.82c-50.9,97.58 -121.96,171.82 -213.18,222.72 -91.21,50.91 -194.09,76.37 -308.63,76.37 -188.79,0 -331.97,-53.03 -429.55,-159.09 -97.57,-106.06 -146.36,-263.03 -146.36,-470.91l0 -992.73 257.72 0 0 986.37c0,144.24 29.7,250.3 89.1,318.17 59.39,67.89 149.54,101.83 270.45,101.83 142.12,0 256.67,-46.14 343.64,-138.41 86.96,-92.27 130.45,-213.72 130.45,-364.32l0 -903.64 257.73 0zm1142.81 1622.73c-154.85,0 -290.08,-33.94 -405.68,-101.82 -115.61,-67.88 -204.7,-163.86 -267.28,-287.95 -62.57,-124.09 -93.86,-268.87 -93.86,-434.32 0,-165.45 31.82,-311.29 95.45,-437.5 63.64,-126.21 154.32,-224.32 272.05,-294.32 117.73,-70 255.08,-105 412.05,-105 108.18,0 212.65,18.56 313.41,55.69 100.75,37.12 184.01,88.55 249.77,154.31l-85.91 190.91c-80.61,-63.63 -158.57,-110.3 -233.87,-140 -75.3,-29.7 -152.19,-44.55 -230.68,-44.55 -163.33,0 -291.66,54.62 -385,163.87 -93.33,109.24 -139.99,261.44 -139.99,456.59 0,193.03 46.13,343.11 138.4,450.23 92.28,107.12 221.14,160.68 386.59,160.68 78.49,0 155.38,-14.85 230.68,-44.54 75.3,-29.7 153.26,-76.37 233.87,-140.01l85.91 190.91c-67.89,63.64 -153.26,114.01 -256.14,151.14 -102.88,37.12 -209.47,55.68 -319.77,55.68zm2288.26 -1622.73l0 1600.46 -254.55 0 0 -289.55c-46.66,99.7 -117.19,176.59 -211.58,230.69 -94.4,54.08 -204.17,81.13 -329.32,81.13 -142.12,0 -266.75,-33.94 -373.87,-101.82 -107.12,-67.88 -189.84,-163.86 -248.18,-287.95 -58.33,-124.09 -87.5,-268.87 -87.5,-434.32 0,-165.45 29.7,-311.29 89.1,-437.5 59.38,-126.21 142.65,-224.32 249.77,-294.32 107.12,-70 230.68,-105 370.68,-105 125.15,0 234.39,27.58 327.73,82.73 93.33,55.15 164.39,132.58 213.17,232.27l0 -276.82 254.55 0zm-744.55 1409.55c156.98,0 277.88,-53.56 362.74,-160.68 84.84,-107.12 127.26,-259.32 127.26,-456.6 0,-197.27 -42.42,-348.93 -127.26,-454.99 -84.86,-106.06 -205.76,-159.1 -362.74,-159.1 -156.96,0 -279.46,54.62 -367.49,163.87 -88.03,109.24 -132.05,261.44 -132.05,456.59 0,195.15 43.49,345.76 130.46,451.82 86.97,106.06 210,159.09 369.08,159.09zm1562.82 -1205.91l0 875c0,118.78 24.39,202.05 73.18,249.77 48.79,47.73 117.73,71.59 206.81,71.59 59.4,0 116.68,-9.54 171.83,-28.63l0 219.54c-65.76,21.21 -140.01,31.82 -222.73,31.82 -152.73,0 -272.05,-42.96 -357.95,-128.87 -85.91,-85.91 -128.87,-212.65 -128.87,-380.22l0 -910 -311.82 0 0 -203.64 311.82 0 0 -269.14 257.73 -233.58 0 502.72 458.18 0 0 203.64 -458.18 0zm745.08 1396.82l0 -1600.46 257.73 0 0 1600.46 -257.73 0zm1394.17 22.27c-150.6,0 -283.18,-33.94 -397.73,-101.82 -114.54,-67.88 -203.1,-164.39 -265.68,-289.55 -62.57,-125.14 -93.86,-271.51 -93.86,-439.09 0,-167.57 31.29,-313.94 93.86,-439.08 62.58,-125.16 151.14,-221.67 265.68,-289.55 114.55,-67.88 247.13,-101.82 397.73,-101.82 150.61,0 283.18,33.94 397.73,101.82 114.55,67.88 203.1,164.39 265.68,289.55 62.58,125.14 93.86,271.51 93.86,439.08 0,167.58 -31.28,313.95 -93.86,439.09 -62.58,125.16 -151.13,221.67 -265.68,289.55 -114.55,67.88 -247.12,101.82 -397.73,101.82zm0 -213.18c159.09,0 281.06,-52.5 365.91,-157.51 84.85,-105 127.27,-258.25 127.27,-459.77 0,-195.14 -43.49,-346.28 -130.45,-453.4 -86.97,-107.12 -207.88,-160.69 -362.73,-160.69 -156.97,0 -278.94,53.57 -365.91,160.69 -86.96,107.12 -130.45,258.26 -130.45,453.4 0,201.52 42.95,354.77 128.86,459.77 85.91,105.01 208.41,157.51 367.5,157.51zm1931.91 -1447.73c383.93,0 575.9,211.07 575.9,633.18l0 1005.46 -257.73 0 0 -992.73c0,-148.48 -29.69,-257.2 -89.08,-326.14 -59.4,-68.93 -152.73,-103.41 -280,-103.41 -148.49,0 -267.28,45.61 -356.37,136.82 -89.09,91.22 -133.63,214.24 -133.63,369.09l0 916.37 -257.73 0 0 -1151.82c0,-165.46 -8.48,-315 -25.45,-448.64l244.99 0 25.46 286.37c48.79,-103.94 121.97,-184.02 219.55,-240.23 97.57,-56.21 208.93,-84.32 334.09,-84.32z"/>
 </g>
</svg>
